<?xml version="1.0" standalone="no"?>
<svg xmlns:xlink="http://www.w3.org/1999/xlink" id="wave" style="transform:rotate(180deg); transition: 0.3s" viewBox="0 0 1440 100" version="1.1" xmlns="http://www.w3.org/2000/svg"><defs><linearGradient id="sw-gradient-0" x1="0" x2="0" y1="1" y2="0"><stop stop-color="rgba(255, 249, 234, 1)" offset="0%"/><stop stop-color="rgba(255, 249, 234, 1)" offset="100%"/></linearGradient></defs><path style="transform:translate(0, 0px); opacity:1" fill="url(#sw-gradient-0)" d="M0,10L34.3,21.7C68.6,33,137,57,206,61.7C274.3,67,343,53,411,41.7C480,30,549,20,617,15C685.7,10,754,10,823,21.7C891.4,33,960,57,1029,60C1097.1,63,1166,47,1234,45C1302.9,43,1371,57,1440,56.7C1508.6,57,1577,43,1646,36.7C1714.3,30,1783,30,1851,33.3C1920,37,1989,43,2057,41.7C2125.7,40,2194,30,2263,21.7C2331.4,13,2400,7,2469,10C2537.1,13,2606,27,2674,31.7C2742.9,37,2811,33,2880,36.7C2948.6,40,3017,50,3086,58.3C3154.3,67,3223,73,3291,63.3C3360,53,3429,27,3497,18.3C3565.7,10,3634,20,3703,21.7C3771.4,23,3840,17,3909,16.7C3977.1,17,4046,23,4114,35C4182.9,47,4251,63,4320,61.7C4388.6,60,4457,40,4526,30C4594.3,20,4663,20,4731,16.7C4800,13,4869,7,4903,3.3L4937.1,0L4937.1,100L4902.9,100C4868.6,100,4800,100,4731,100C4662.9,100,4594,100,4526,100C4457.1,100,4389,100,4320,100C4251.4,100,4183,100,4114,100C4045.7,100,3977,100,3909,100C3840,100,3771,100,3703,100C3634.3,100,3566,100,3497,100C3428.6,100,3360,100,3291,100C3222.9,100,3154,100,3086,100C3017.1,100,2949,100,2880,100C2811.4,100,2743,100,2674,100C2605.7,100,2537,100,2469,100C2400,100,2331,100,2263,100C2194.3,100,2126,100,2057,100C1988.6,100,1920,100,1851,100C1782.9,100,1714,100,1646,100C1577.1,100,1509,100,1440,100C1371.4,100,1303,100,1234,100C1165.7,100,1097,100,1029,100C960,100,891,100,823,100C754.3,100,686,100,617,100C548.6,100,480,100,411,100C342.9,100,274,100,206,100C137.1,100,69,100,34,100L0,100Z"/></svg>